<?xml version="1.0" encoding="UTF-8"?>
<!-- Generated by Pixelmator Pro 3.4.1 -->
<svg width="160" height="180" viewBox="0 0 160 180" xmlns="http://www.w3.org/2000/svg">

    <path id="Shape" fill="#ffffff" fill-rule="evenodd" stroke="none" filter="url(#filter1)" d="M 80.19838 174.934189 C 72.462418 174.894104 65.394341 174.302094 62.111809 173.419312 C 59.148304 172.62233 53.973305 170.639252 50.611809 169.012482 C 47.250313 167.385712 41.42688 163.729889 37.670845 160.888428 C 33.91481 158.046982 28.649038 153.087418 25.969128 149.867188 C 23.289217 146.646942 19.218016 140.850128 16.922014 136.985397 C 14.626012 133.120651 11.44111 126.168594 9.844453 121.536377 C 8.247796 116.90416 6.435164 109.600983 5.816381 105.307083 C 5.158385 100.741074 4.925632 92.103111 5.255729 84.5 C 5.634472 75.776405 6.49627 69.197319 7.875538 64.5 C 9.006009 60.650002 12.197628 53 14.968024 47.5 C 17.73842 42 22.140314 35.002213 24.750011 31.949356 C 27.359709 28.8965 32.011238 24.236816 35.086739 21.594498 C 38.162243 18.952179 43.847496 15.032715 47.720638 12.884567 C 51.593781 10.736435 58.263088 8.083618 62.541321 6.989426 C 67.787712 5.647629 73.611137 5 80.430061 5 C 87.514427 5 92.730499 5.606964 97.858742 7.028076 C 101.883934 8.143509 107.499893 10.221329 110.338638 11.645432 C 113.177391 13.06955 117.75 15.80542 120.5 17.725143 C 123.25 19.644882 128.030899 23.847717 131.124222 27.064774 C 134.217529 30.281845 138.402695 35.406235 140.424561 38.452316 C 142.446442 41.498398 145.404251 46.805252 146.997467 50.245331 C 148.590698 53.685394 150.930527 60.066788 152.197113 64.426201 C 154.225449 71.407425 154.5 74.517479 154.5 90.512596 C 154.5 106.568115 154.231079 109.589935 152.179672 116.586395 C 150.903488 120.938873 148.266342 127.650002 146.319336 131.5 C 144.37233 135.350006 140.843597 141.199997 138.477707 144.5 C 136.111816 147.800003 131.773956 152.83139 128.838043 155.680878 C 125.902115 158.530365 120.125 162.932404 116 165.463196 C 111.875 167.993988 104.989273 171.175079 100.69838 172.532318 C 94.036186 174.639587 91.042152 174.990387 80.19838 174.934189 Z M 79.532074 159.897644 C 83.949715 159.953934 89.894417 159.395538 92.742531 158.656738 C 95.590637 157.917953 100.76387 155.91391 104.238594 154.203308 C 107.71331 152.492706 113.438538 148.484818 116.961304 145.296906 C 120.484077 142.108978 125.537788 136.174347 128.191772 132.108856 C 131.31163 127.329704 134.162888 121.144135 136.258606 114.608521 C 139.25795 105.254852 139.5 103.486656 139.5 90.929924 C 139.5 81.090057 139.004837 75.45491 137.698654 70.429924 C 136.707901 66.618462 134.408066 60.349998 132.587906 56.5 C 130.767731 52.650002 127.211487 46.714279 124.685135 43.309525 C 122.158791 39.90477 117.708626 35.22139 114.795891 32.902008 C 111.883148 30.582642 106.279472 27.186615 102.343269 25.355301 C 98.407066 23.523972 91.994476 21.478241 88.093071 20.809235 C 82.58741 19.865112 79.187447 19.856964 72.903824 20.772812 C 67.631889 21.541199 62.312679 23.153214 57.654018 25.394348 C 53.719307 27.287201 49.283176 29.88533 47.795948 31.167953 C 46.308723 32.450577 43.124405 35.37854 40.719692 37.674545 C 38.31498 39.970551 34.679432 44.271042 32.640697 47.231186 C 30.601961 50.191345 27.84099 55.287796 26.505203 58.556641 C 25.169418 61.825493 23.27179 67.875 22.288252 72 C 21.160313 76.730621 20.5 83.377136 20.5 90 C 20.5 96.756134 21.168606 103.35247 22.375164 108.5 C 23.406506 112.900002 25.53544 119.35585 27.106129 122.846329 C 28.676819 126.336823 31.990133 132.034943 34.469051 135.508835 C 36.947968 138.982727 41.344032 143.81192 44.238087 146.240356 C 47.132137 148.668808 51.124378 151.63089 53.109734 152.822739 C 55.095085 154.014587 58.695087 155.717987 61.109734 156.608063 C 63.52438 157.498138 66.849998 158.579376 68.5 159.010818 C 70.150002 159.442276 75.114433 159.841339 79.532074 159.897644 Z M 81.281548 148.943832 C 75.446953 148.906509 70.409363 148.22525 66.270164 146.913757 C 62.84375 145.828094 57.21875 143.011688 53.770161 140.65506 C 50.321571 138.298431 45.313332 133.699463 42.640732 130.43515 C 39.968136 127.170815 36.525223 121.892609 34.989819 118.705803 C 33.454411 115.518997 31.366081 109.893997 30.349085 106.205803 C 29.182995 101.976913 28.5 96.170395 28.5 90.485687 C 28.5 85.527817 29.059469 78.791496 29.743265 75.516083 C 30.427059 72.240677 32.5042 66.397118 34.359135 62.530396 C 36.214066 58.663681 39.425591 53.25 41.495861 50.5 C 43.566128 47.75 47.604919 43.595367 50.470951 41.267487 C 53.336987 38.939606 58.11599 35.934753 61.090961 34.590027 C 64.065933 33.245316 69.334991 31.599472 72.79998 30.932602 C 76.289177 30.261078 81.895584 29.981186 85.365982 30.305252 C 88.812294 30.627075 94.302299 31.878952 97.566002 33.087204 C 100.829704 34.295456 105.890244 36.8573 108.811646 38.780167 C 111.733047 40.703049 116.233047 44.710159 118.811646 47.68486 C 121.390244 50.659576 124.92701 55.855408 126.671127 59.231171 C 128.415253 62.606934 130.665253 67.873413 131.671127 70.934456 C 133.05101 75.133644 133.5 79.587723 133.5 89.077156 C 133.5 96.25499 132.938828 103.76767 132.19281 106.577156 C 131.473862 109.284721 129.326843 114.747131 127.421661 118.715851 C 125.431221 122.862167 121.520714 128.568741 118.228844 132.130844 C 115.07798 135.540375 110.198959 139.805252 107.386566 141.608353 C 104.574181 143.411469 99.525879 145.812225 96.168114 146.943359 C 91.762764 148.427429 87.618263 148.98436 81.281548 148.943832 Z M 83.616959 133.50885 C 87.436928 133.253586 91.825844 132.109619 95.304779 130.462418 C 98.549629 128.926056 103.009529 125.568466 105.986366 122.420898 C 108.797272 119.448784 112.406128 114.200714 114.00605 110.75853 C 115.605972 107.316338 117.41301 101.349998 118.021683 97.5 C 118.630356 93.650002 118.820137 87.825012 118.443428 84.55558 C 118.066719 81.286148 116.973091 76.328339 116.013145 73.538216 C 115.053207 70.7481 112.821579 66.114876 111.053978 63.242157 C 109.286377 60.369438 106.120049 56.546677 104.017693 54.747139 C 101.915337 52.947601 98.2388 50.400391 95.847618 49.08667 C 92.511063 47.253555 89.477791 46.589066 82.804413 46.229324 C 74.750778 45.795166 73.643394 45.978516 67.804413 48.712814 C 63.454678 50.749725 59.822216 53.499771 56.088654 57.582535 C 53.112411 60.837143 49.683533 65.75 48.468922 68.5 C 47.254311 71.25 45.751919 75.884651 45.130268 78.799225 C 44.508621 81.713791 44 86.906746 44 90.339119 C 44 93.7715 44.671249 99.156906 45.491669 102.306702 C 46.312084 105.456497 48.149467 110.334854 49.574741 113.147491 C 51.000011 115.960129 54.385712 120.480949 57.098515 123.193756 C 59.811317 125.906555 64.161438 129.073395 66.765442 130.231155 C 69.369446 131.388916 72.849998 132.692001 74.5 133.126892 C 76.150002 133.561768 80.252632 133.733658 83.616959 133.50885 Z M 82.755371 123.58873 C 79.314919 123.786346 75.375 123.577591 74 123.12484 C 72.625 122.672089 69.63607 121.349411 67.357941 120.18557 C 65.079803 119.021729 61.126614 115.691353 58.573067 112.784744 C 55.193501 108.937904 53.358913 105.629982 51.830395 100.62709 C 50.178196 95.219398 49.856056 92.256966 50.319321 86.731148 C 50.705685 82.122612 51.820873 77.842484 53.563068 74.281563 C 55.0233 71.296959 57.887497 67.100044 59.927956 64.955078 C 61.96841 62.810112 66.306854 59.816353 69.568939 58.302284 C 74.03392 56.229897 76.987206 55.560577 81.516548 55.594528 C 85.757782 55.62632 89.151093 56.383629 93.016548 58.161064 C 96.032448 59.547852 100.222519 62.441437 102.327827 64.591248 C 104.433128 66.741066 107.227692 70.587143 108.537964 73.1381 C 109.848244 75.689056 111.363914 80.530914 111.906136 83.897797 C 112.505524 87.619629 112.548294 92.131134 112.015259 95.406258 C 111.533051 98.369041 109.983192 103.073067 108.571121 105.85965 C 107.15905 108.646233 104.622108 112.499741 102.933464 114.422997 C 101.24482 116.346252 97.421402 119.114487 94.436974 120.574631 C 90.828987 122.339859 86.914673 123.349838 82.755371 123.58873 Z M 84 108.1745 C 85.375 107.937943 88.011482 106.616653 89.858849 105.238289 C 91.706215 103.859924 94.05883 100.879936 95.086884 98.616089 C 96.119255 96.342735 96.9533 92.261543 96.949867 89.5 C 96.945854 86.269394 96.131393 82.907539 94.648331 80 C 93.385902 77.525002 90.857033 74.487503 89.028618 73.25 C 86.915611 71.819885 84.209457 71.001366 81.602119 71.003738 C 79.340073 71.005798 76.104309 71.858543 74.388565 72.904778 C 72.677269 73.948288 70.311096 76.158737 69.130394 77.816879 C 67.949692 79.475021 66.691437 82.292809 66.334274 84.078621 C 65.977112 85.864433 65.755798 89.135254 65.842468 91.347107 C 65.929138 93.558952 66.922134 97.27343 68.049133 99.601494 C 69.176125 101.929558 71.304199 104.624527 72.778183 105.590317 C 74.252167 106.556107 76.817574 107.629417 78.47908 107.975449 C 80.140587 108.321472 82.625 108.411049 84 108.1745 Z"/>
</svg>
